<svg width="56" height="56" viewBox="0 0 56 56" fill="none" xmlns="http://www.w3.org/2000/svg">
<g clip-path="url(#clip0_344_16)">
<path d="M28 56C43.464 56 56 43.464 56 28C56 12.536 43.464 0 28 0C12.536 0 0 12.536 0 28C0 43.464 12.536 56 28 56Z" fill="url(#paint0_linear_344_16)"/>
<path d="M28 55C42.9117 55 55 42.9117 55 28C55 13.0883 42.9117 1 28 1C13.0883 1 1 13.0883 1 28C1 42.9117 13.0883 55 28 55Z" fill="#042501"/>
<path opacity="0.079" d="M28 55C42.9117 55 55 42.9117 55 28C55 13.0883 42.9117 1 28 1C13.0883 1 1 13.0883 1 28C1 42.9117 13.0883 55 28 55Z" fill="url(#paint1_radial_344_16)"/>
<path d="M27.712 33.2L27.217 33.127L27.365 32.137L27.86 32.212C28.405 32.293 28.955 32.338 29.5 32.344C30.5039 32.344 31.4668 31.9453 32.1768 31.2355C32.8867 30.5257 33.2857 29.5629 33.286 28.559C33.286 27.185 33.076 26.069 32.444 23.537C32.2971 22.9633 32.1584 22.3876 32.028 21.81C31.724 20.444 31.571 19.344 31.571 18.272C31.5724 17.231 31.9184 16.2197 32.555 15.396L32.861 15L33.652 15.611L33.347 16.007C32.8451 16.6559 32.5722 17.4527 32.571 18.273C32.571 19.259 32.715 20.293 33.004 21.593C33.109 22.063 33.2 22.442 33.414 23.294C34.067 25.906 34.286 27.074 34.286 28.559C34.2859 29.1879 34.1618 29.8107 33.9208 30.3916C33.6799 30.9725 33.3268 31.5003 32.8817 31.9447C32.4367 32.3891 31.9084 32.7414 31.3271 32.9815C30.7458 33.2216 30.1229 33.3448 29.494 33.344C28.8974 33.3371 28.302 33.2883 27.712 33.2ZM29.574 22.202L30.069 22.276L29.92 23.266L29.426 23.191C28.883 23.1097 28.335 23.0656 27.786 23.059C26.7821 23.059 25.8192 23.4577 25.1092 24.1675C24.3993 24.8773 24.0003 25.8401 24 26.844C24 28.572 24.207 29.641 24.838 31.85C25.493 34.14 25.714 35.287 25.714 37.13C25.7131 38.1712 25.3674 39.1829 24.731 40.007L24.425 40.403L23.633 39.791L23.939 39.396C24.441 38.746 24.713 37.95 24.714 37.13C24.714 35.402 24.507 34.333 23.876 32.124C23.222 29.834 23 28.688 23 26.844C23.0003 26.2151 23.1244 25.5924 23.3654 25.0116C23.6064 24.4307 23.9595 23.903 24.4046 23.4586C24.8496 23.0142 25.3778 22.6619 25.959 22.4218C26.5403 22.1816 27.1631 22.0583 27.792 22.059C28.388 22.066 28.984 22.114 29.574 22.202Z" fill="#E2E8F0"/>
<path d="M20.664 30.774L20.516 31.764C19.9733 31.6824 19.4257 31.6379 18.877 31.631C18.0564 31.6333 17.2593 31.9049 16.608 32.404L16 31.611C16.8273 30.9772 17.8399 30.6329 18.882 30.631C19.478 30.638 20.074 30.686 20.664 30.774ZM35.944 24.63L36.093 23.641C36.6353 23.7226 37.1826 23.767 37.731 23.774C38.5517 23.7714 39.3488 23.4995 40 23L40.608 23.794C39.781 24.4276 38.7688 24.7719 37.727 24.774C37.1301 24.7668 36.5343 24.7187 35.944 24.63Z" fill="white"/>
</g>
<defs>
<linearGradient id="paint0_linear_344_16" x1="2800" y1="5600" x2="2800" y2="0" gradientUnits="userSpaceOnUse">
<stop stop-color="#334155"/>
<stop offset="1" stop-color="#94A3B8" stop-opacity="0.601"/>
</linearGradient>
<radialGradient id="paint1_radial_344_16" cx="0" cy="0" r="1" gradientUnits="userSpaceOnUse" gradientTransform="translate(2633.18 2739.93) scale(1868.29)">
<stop stop-color="#F1F5F9"/>
<stop offset="1" stop-color="#F1F5F9" stop-opacity="0"/>
</radialGradient>
<clipPath id="clip0_344_16">
<rect width="56" height="56" fill="white"/>
</clipPath>
</defs>
</svg>
