<svg width="56" height="56" viewBox="0 0 56 56" fill="none" xmlns="http://www.w3.org/2000/svg">
<g clip-path="url(#clip0_344_2)">
<path d="M28 56C43.464 56 56 43.464 56 28C56 12.536 43.464 0 28 0C12.536 0 0 12.536 0 28C0 43.464 12.536 56 28 56Z" fill="url(#paint0_linear_344_2)"/>
<path d="M28 55C42.9117 55 55 42.9117 55 28C55 13.0883 42.9117 1 28 1C13.0883 1 1 13.0883 1 28C1 42.9117 13.0883 55 28 55Z" fill="#042501"/>
<path opacity="0.079" d="M28 55C42.9117 55 55 42.9117 55 28C55 13.0883 42.9117 1 28 1C13.0883 1 1 13.0883 1 28C1 42.9117 13.0883 55 28 55Z" fill="url(#paint1_radial_344_2)"/>
<path d="M25.4399 19.083L24.5739 19.583L22.0719 15.25L22.9379 14.75L25.4399 19.083ZM14.5669 19.583L15.4329 19.083L17.9349 23.417L17.0689 23.917L14.5669 19.583ZM37.9499 23.917L37.0839 23.417L39.5859 19.083L40.4519 19.583L37.9499 23.917ZM32.0799 14.75L32.9469 15.25L30.4449 19.583L29.5789 19.083L32.0799 14.75ZM29.5799 36.917L30.4459 36.417L32.9479 40.75L32.0819 41.25L29.5799 36.917ZM40.4529 36.417L39.5869 36.917L37.0849 32.583L37.9509 32.083L40.4529 36.417ZM17.0699 32.083L17.9359 32.583L15.4339 36.917L14.5679 36.417L17.0699 32.083ZM22.9399 41.25L22.0729 40.75L24.5749 36.417L25.4409 36.917L22.9389 41.25H22.9399Z" fill="#475569"/>
<path d="M25.2959 28.5L23.0829 32.333L25.2959 36.167H29.7229L31.9359 32.333L29.7229 28.5H25.2959ZM25.2959 27.5H29.7229L31.9359 23.667L29.7229 19.833H25.2959L23.0829 23.667L25.2959 27.5ZM22.2159 23.167L24.7189 18.833H30.2999L32.8018 23.167H37.8059L40.5959 28L37.8059 32.833H32.8018L30.2999 37.167H24.7199L22.2179 32.833H17.2139L14.4229 28L17.2129 23.167H22.2159ZM37.2279 31.833L39.4419 28L37.2279 24.167H32.8018L30.5899 28L32.8029 31.833H37.2279ZM22.2169 31.833L24.4299 28L22.2169 24.167H17.7899L15.5769 28L17.7909 31.833H22.2169Z" fill="#E2E8F0"/>
</g>
<defs>
<linearGradient id="paint0_linear_344_2" x1="2800" y1="5600" x2="2800" y2="0" gradientUnits="userSpaceOnUse">
<stop stop-color="#334155"/>
<stop offset="1" stop-color="#94A3B8" stop-opacity="0.601"/>
</linearGradient>
<radialGradient id="paint1_radial_344_2" cx="0" cy="0" r="1" gradientUnits="userSpaceOnUse" gradientTransform="translate(2633.18 2739.93) scale(1868.29)">
<stop stop-color="#F1F5F9"/>
<stop offset="1" stop-color="#F1F5F9" stop-opacity="0"/>
</radialGradient>
<clipPath id="clip0_344_2">
<rect width="56" height="56" fill="white"/>
</clipPath>
</defs>
</svg>
