<svg width="56" height="56" viewBox="0 0 56 56" fill="none" xmlns="http://www.w3.org/2000/svg">
<g clip-path="url(#clip0_344_9)">
<path d="M28 56C43.464 56 56 43.464 56 28C56 12.536 43.464 0 28 0C12.536 0 0 12.536 0 28C0 43.464 12.536 56 28 56Z" fill="url(#paint0_linear_344_9)"/>
<path d="M28 55C42.9117 55 55 42.9117 55 28C55 13.0883 42.9117 1 28 1C13.0883 1 1 13.0883 1 28C1 42.9117 13.0883 55 28 55Z" fill="#042501"/>
<path opacity="0.079" d="M28 55C42.9117 55 55 42.9117 55 28C55 13.0883 42.9117 1 28 1C13.0883 1 1 13.0883 1 28C1 42.9117 13.0883 55 28 55Z" fill="url(#paint1_radial_344_9)"/>
<path d="M42.5326 36.8969L35.8865 30.3047C35.5852 30.0058 35.1834 29.8413 34.7552 29.8413C34.5741 29.8413 34.3983 29.8725 34.2323 29.929L32.6385 28.3481C32.4006 28.1121 32.0834 27.9821 31.7454 27.9821C31.4074 27.9821 31.0902 28.1121 30.8524 28.348L30.4332 28.7638L29.6835 28.0201L32.9643 24.7488C33.731 25.0786 34.5642 25.2363 35.425 25.2363C35.4252 25.2363 35.4253 25.2363 35.4256 25.2363C37.0774 25.2363 38.6305 24.6151 39.7988 23.4563C41.3641 21.9039 41.9747 19.6303 41.3924 17.5093C41.3201 17.2455 41.0703 17.0583 40.7985 17.0583C40.6816 17.0583 40.5078 17.0946 40.3447 17.2564C40.3224 17.2782 38.1124 19.4547 37.382 20.1791C37.3016 20.2589 37.1689 20.2713 37.0915 20.2713C37.0361 20.2713 37.0055 20.2656 37.0055 20.2656V20.2657L36.9556 20.2601C36.0477 20.1774 34.9587 20.0108 34.6839 19.8851C34.5528 19.6105 34.3953 18.5044 34.3111 17.5893V17.5771L34.2914 17.5513C34.2865 17.5108 34.2653 17.3043 34.4483 17.1228C35.2084 16.3687 37.2982 14.2772 37.318 14.2573C37.4949 14.082 37.5622 13.8615 37.506 13.6522C37.4385 13.4013 37.2235 13.2608 37.0455 13.2131C36.5181 13.0717 35.9725 13 35.4249 13C33.7729 13 32.2196 13.6381 31.0515 14.7966C29.2074 16.6257 28.7751 19.3313 29.7509 21.5733L26.4675 24.83L20.8494 19.2577C20.846 19.2543 20.8422 19.2514 20.8387 19.2481C20.8917 19.0337 20.915 18.811 20.9053 18.5844C20.8776 17.9388 20.5918 17.3149 20.1005 16.8277L18.1011 14.8443C18.0574 14.801 17.8217 14.5847 17.4725 14.5847C17.3104 14.5847 17.0681 14.6333 16.8343 14.8652L14.643 17.0388C14.3886 17.2911 14.298 17.6153 14.3943 17.9284C14.4589 18.1382 14.5844 18.2741 14.6214 18.3108L16.6134 20.2866C17.1336 20.8027 17.7992 21.0869 18.4876 21.0869H18.4876C18.6802 21.0869 18.8698 21.0634 19.0535 21.0186C19.057 21.0221 19.0599 21.0258 19.0633 21.0292L24.6813 26.6017L22.0128 29.2485C21.8926 29.3678 21.7881 29.4983 21.6991 29.6372C20.9176 29.292 20.0653 29.1088 19.1841 29.1088C17.5319 29.1088 15.9786 29.747 14.8103 30.9058C13.2451 32.4583 12.6345 34.7404 13.2167 36.8614C13.2891 37.1252 13.5388 37.3167 13.8105 37.3167H13.8106C13.9276 37.3167 14.1013 37.2824 14.2644 37.1206C14.2868 37.0988 16.4968 34.9234 17.2272 34.199C17.3076 34.1192 17.4494 34.1074 17.5267 34.1074C17.5822 34.1074 17.6214 34.1134 17.622 34.1134H17.6219L17.6629 34.1191C18.5705 34.2016 19.6679 34.3682 19.9429 34.494C20.0739 34.7688 20.2439 35.8749 20.3263 36.7899L20.3322 36.8318C20.3327 36.8339 20.3627 37.0632 20.1678 37.2565C19.4076 38.0106 17.3145 40.1021 17.2946 40.1221C17.1178 40.2974 17.0488 40.518 17.105 40.7272C17.1725 40.978 17.3867 41.1184 17.5646 41.1661C18.0921 41.3076 18.6372 41.3794 19.1849 41.3794C20.837 41.3794 22.39 40.7413 23.5581 39.5827C24.7264 38.4239 25.3699 36.8831 25.3698 35.2443C25.3698 34.3703 25.1851 33.525 24.8371 32.7498C24.9772 32.6615 25.1088 32.5579 25.229 32.4386L27.8975 29.7917L28.6472 30.5353L28.228 30.9512C27.9901 31.1871 27.8591 31.5017 27.8591 31.8369C27.8591 32.1723 27.9901 32.4869 28.228 32.7228L29.8218 34.3037C29.7648 34.4684 29.7334 34.6427 29.7334 34.8223C29.7334 35.247 29.8994 35.6455 30.2006 35.9443L36.8469 42.5366C37.148 42.8354 37.5498 43 37.9781 43C38.4063 43 38.808 42.8354 39.1093 42.5366L42.5328 39.1408C42.834 38.842 43 38.4436 43 38.0188C42.9998 37.5943 42.834 37.1957 42.5326 36.8969Z" fill="#E2E8F0"/>
</g>
<defs>
<linearGradient id="paint0_linear_344_9" x1="2800" y1="5600" x2="2800" y2="0" gradientUnits="userSpaceOnUse">
<stop stop-color="#334155"/>
<stop offset="1" stop-color="#94A3B8" stop-opacity="0.601"/>
</linearGradient>
<radialGradient id="paint1_radial_344_9" cx="0" cy="0" r="1" gradientUnits="userSpaceOnUse" gradientTransform="translate(2633.18 2739.93) scale(1868.29)">
<stop stop-color="#F1F5F9"/>
<stop offset="1" stop-color="#F1F5F9" stop-opacity="0"/>
</radialGradient>
<clipPath id="clip0_344_9">
<rect width="56" height="56" fill="white"/>
</clipPath>
</defs>
</svg>
