<svg width="56" height="56" viewBox="0 0 56 56" fill="none" xmlns="http://www.w3.org/2000/svg">
<g clip-path="url(#clip0_344_9)">
<path d="M28 56C43.464 56 56 43.464 56 28C56 12.536 43.464 0 28 0C12.536 0 0 12.536 0 28C0 43.464 12.536 56 28 56Z" fill="url(#paint0_linear_344_9)"/>
<path d="M28 55C42.9117 55 55 42.9117 55 28C55 13.0883 42.9117 1 28 1C13.0883 1 1 13.0883 1 28C1 42.9117 13.0883 55 28 55Z" fill="#042501"/>
<path opacity="0.079" d="M28 55C42.9117 55 55 42.9117 55 28C55 13.0883 42.9117 1 28 1C13.0883 1 1 13.0883 1 28C1 42.9117 13.0883 55 28 55Z" fill="url(#paint1_radial_344_9)"/>
<path d="M30.0469 33.1815V32.4923C31.7161 32.1057 32.9656 30.5909 32.9656 28.7849C32.9656 26.979 31.7161 25.4642 30.0469 25.0775V21.0252C30.9108 21.3312 31.6996 21.9988 31.992 22.302C32.325 22.6498 32.8771 22.6625 33.2257 22.3298C33.5747 21.9968 33.5875 21.4441 33.2546 21.0951C33.188 21.0251 31.8034 19.5949 30.0469 19.213V18.5266C30.0469 18.0442 29.656 17.6533 29.1736 17.6533C28.6912 17.6533 28.3003 18.0442 28.3003 18.5266V19.2325C26.6666 19.6451 25.4522 21.143 25.4522 22.9232C25.4522 24.7035 26.6666 26.2015 28.3003 26.6143V30.5988C27.4702 30.1985 26.6744 29.4118 26.392 29.0782C26.0817 28.7089 25.5307 28.6611 25.1617 28.9713C24.7924 29.2815 24.7445 29.8324 25.0548 30.2016C25.2296 30.4097 26.6055 31.9941 28.3003 32.4597V33.1814C28.3003 33.6638 28.6912 34.0547 29.1736 34.0547C29.6559 34.0548 30.0469 33.6638 30.0469 33.1815ZM31.219 28.7849C31.219 29.613 30.7375 30.3267 30.0469 30.6526V26.9172C30.7375 27.2431 31.219 27.9568 31.219 28.7849ZM27.1988 22.9233C27.1988 22.1238 27.6477 21.431 28.3003 21.0907V24.7563C27.6477 24.4159 27.1988 23.723 27.1988 22.9233Z" fill="#E2E8F0"/>
<path d="M27.5116 41.6206C27.5421 41.6237 27.5723 41.6254 27.6026 41.6254C27.8174 41.6254 28.0259 41.5461 28.1871 41.4009C28.3709 41.2353 28.4758 40.9995 28.4758 40.7521V35.713C28.4758 35.2834 28.1634 34.9177 27.7391 34.8505C23.8457 34.2338 20.7347 31.0724 20.1737 27.1622C20.1121 26.7324 19.7437 26.4131 19.3093 26.4131H14.2903C14.0444 26.4131 13.8099 26.5168 13.6443 26.6987C13.4789 26.8807 13.3977 27.1238 13.4209 27.3687C14.1292 34.8463 20.0552 40.8401 27.5116 41.6206ZM18.579 28.1595C19.0108 30.1695 19.9966 31.9958 21.4567 33.4782C22.9177 34.9613 24.7283 35.9737 26.7294 36.4329V39.7487C20.8695 38.7193 16.2503 34.043 15.2834 28.1597L18.579 28.1595Z" fill="#E2E8F0"/>
<path d="M14.7476 35.7536C14.5003 35.3396 13.9641 35.2046 13.5501 35.4517C13.136 35.6989 13.0009 36.2352 13.2482 36.6492C13.2696 36.6851 13.2912 36.7209 13.3131 36.7566C13.4778 37.0259 13.7649 37.1744 14.0589 37.1744C14.2142 37.1744 14.3716 37.1331 14.5137 37.046C14.9252 36.7942 15.0546 36.2568 14.803 35.8453L14.7476 35.7536Z" fill="#E2E8F0"/>
<path d="M11.9745 30.8343C12.4543 30.7848 12.803 30.3557 12.7535 29.876L12.7428 29.7679C12.6976 29.2878 12.2725 28.9359 11.7915 28.9804C11.3113 29.0255 10.9587 29.4515 11.0039 29.9317L11.0161 30.0554C11.0625 30.5046 11.4416 30.8391 11.8837 30.8391C11.9136 30.8391 11.944 30.8374 11.9745 30.8343Z" fill="#E2E8F0"/>
<path d="M13.4453 32.9672L13.41 32.8638C13.2558 32.407 12.7603 32.1614 12.3032 32.3156C11.8462 32.4697 11.6009 32.9653 11.7551 33.4223L11.7951 33.5393C11.9203 33.9004 12.2584 34.1268 12.6202 34.1268C12.715 34.1268 12.8116 34.1112 12.9063 34.0783C13.362 33.9204 13.6033 33.4228 13.4453 32.9672Z" fill="#E2E8F0"/>
<path d="M28.1197 43.2101L28.0691 43.21C27.5867 43.21 27.1958 43.6008 27.1958 44.0832C27.1958 44.5656 27.5867 44.9565 28.0691 44.9565L28.106 44.9566C28.1083 44.9566 28.1107 44.9566 28.113 44.9566C28.5921 44.9566 28.9824 44.5702 28.9862 44.0902C28.99 43.6078 28.602 43.2138 28.1197 43.2101Z" fill="#E2E8F0"/>
<path d="M24.996 42.9205L24.8851 42.8988C24.4119 42.8044 23.9526 43.1131 23.8591 43.5862C23.7654 44.0593 24.0733 44.5187 24.5464 44.6121L24.6641 44.635C24.7201 44.646 24.7759 44.6511 24.831 44.6511C25.2409 44.6511 25.6067 44.3611 25.6874 43.9436C25.779 43.4701 25.4694 43.012 24.996 42.9205Z" fill="#E2E8F0"/>
<path d="M21.9404 42.0029L21.8384 41.9597C21.3948 41.7709 20.8817 41.9767 20.6924 42.4203C20.503 42.8639 20.7093 43.3769 21.1529 43.5662L21.2654 43.6137C21.3756 43.66 21.49 43.6819 21.6026 43.6819C21.944 43.6819 22.2681 43.4804 22.4083 43.1459C22.5949 42.701 22.3853 42.1892 21.9404 42.0029Z" fill="#E2E8F0"/>
<path d="M16.6594 38.3056C16.3314 37.9521 15.7788 37.9315 15.4253 38.2595C15.0718 38.5875 15.051 39.1401 15.3792 39.4936L15.4609 39.5814C15.6329 39.7651 15.8655 39.8581 16.0989 39.8581C16.3126 39.8581 16.5269 39.7801 16.6953 39.6225C17.0475 39.293 17.0659 38.7404 16.7364 38.3882L16.6594 38.3056Z" fill="#E2E8F0"/>
<path d="M19.1463 40.4694L19.0573 40.4071C18.6631 40.1288 18.1183 40.2228 17.8401 40.6168C17.562 41.0108 17.6558 41.5558 18.0499 41.8339L18.1516 41.9051C18.3033 42.0101 18.4766 42.0606 18.6482 42.0606C18.925 42.0606 19.1973 41.9293 19.3669 41.6845C19.6413 41.2881 19.5427 40.7441 19.1463 40.4694Z" fill="#E2E8F0"/>
<path d="M29.1737 10C25.1544 10 21.3228 11.5115 18.3846 14.2562C15.462 16.9862 13.6892 20.6807 13.3926 24.6594C13.3745 24.9016 13.4581 25.1404 13.6235 25.3185C13.7887 25.4964 14.0206 25.5977 14.2635 25.5977H19.2712C19.7156 25.5977 20.0892 25.2637 20.139 24.8221C20.6572 20.2151 24.5415 16.7411 29.1739 16.7411C34.1886 16.7411 38.2684 20.8293 38.2684 25.8545C38.2684 30.421 34.8643 34.3049 30.3501 34.8887C29.9147 34.9451 29.5888 35.3158 29.5888 35.7549V40.7793C29.5888 41.024 29.6914 41.2572 29.8715 41.4225C30.0334 41.571 30.2443 41.6526 30.4621 41.6526C30.4868 41.6526 30.5117 41.6516 30.5366 41.6495C34.4715 41.3127 38.119 39.5203 40.8071 36.6025C43.5109 33.6675 44.9999 29.8506 44.9999 25.8545C44.9997 17.1123 37.9002 10 29.1737 10ZM31.3353 39.7948V36.4945C36.3343 35.4808 40.0148 31.0363 40.0148 25.8543C40.0148 19.866 35.1514 14.9943 29.1737 14.9943C23.9146 14.9943 19.4644 18.75 18.5185 23.8509H15.236C16.214 16.9912 22.1625 11.7466 29.1737 11.7466C36.9372 11.7466 43.2532 18.0753 43.2532 25.8543C43.2532 32.7965 38.0906 38.7431 31.3353 39.7948Z" fill="#E2E8F0"/>
</g>
<defs>
<linearGradient id="paint0_linear_344_9" x1="2800" y1="5600" x2="2800" y2="0" gradientUnits="userSpaceOnUse">
<stop stop-color="#334155"/>
<stop offset="1" stop-color="#94A3B8" stop-opacity="0.601"/>
</linearGradient>
<radialGradient id="paint1_radial_344_9" cx="0" cy="0" r="1" gradientUnits="userSpaceOnUse" gradientTransform="translate(2633.18 2739.93) scale(1868.29)">
<stop stop-color="#F1F5F9"/>
<stop offset="1" stop-color="#F1F5F9" stop-opacity="0"/>
</radialGradient>
<clipPath id="clip0_344_9">
<rect width="56" height="56" fill="white"/>
</clipPath>
</defs>
</svg>
