<svg width="56" height="56" viewBox="0 0 56 56" fill="none" xmlns="http://www.w3.org/2000/svg">
<g clip-path="url(#clip0_344_9)">
<path d="M28 56C43.464 56 56 43.464 56 28C56 12.536 43.464 0 28 0C12.536 0 0 12.536 0 28C0 43.464 12.536 56 28 56Z" fill="url(#paint0_linear_344_9)"/>
<path d="M28 55C42.9117 55 55 42.9117 55 28C55 13.0883 42.9117 1 28 1C13.0883 1 1 13.0883 1 28C1 42.9117 13.0883 55 28 55Z" fill="#042501"/>
<path opacity="0.079" d="M28 55C42.9117 55 55 42.9117 55 28C55 13.0883 42.9117 1 28 1C13.0883 1 1 13.0883 1 28C1 42.9117 13.0883 55 28 55Z" fill="url(#paint1_radial_344_9)"/>
<path d="M33.804 21.335L37.14 18L37.847 18.707L30.493 26.062L29.786 25.355L33.096 22.044C32.0397 21.1235 30.7407 20.5264 29.3543 20.324C27.9678 20.1217 26.5524 20.3226 25.277 20.9028C24.0017 21.483 22.9202 22.418 22.1618 23.5962C21.4034 24.7743 21.0001 26.1459 21 27.547C21.0001 28.9481 21.4034 30.3197 22.1618 31.4978C22.9202 32.676 24.0017 33.611 25.277 34.1912C26.5524 34.7714 27.9678 34.9723 29.3543 34.77C30.7407 34.5676 32.0397 33.9705 33.096 33.05L29.785 29.738L30.492 29.031L37.846 36.385L37.139 37.093L33.805 33.758C32.6083 34.8186 31.1307 35.5109 29.5498 35.7517C27.969 35.9925 26.3523 35.7715 24.8941 35.1153C23.4359 34.4591 22.1982 33.3957 21.33 32.0529C20.4618 30.7101 19.9999 29.1451 20 27.546C20.0003 25.9472 20.4623 24.3826 21.3306 23.0401C22.1988 21.6976 23.4363 20.6345 24.8943 19.9785C26.3523 19.3224 27.9688 19.1015 29.5493 19.3421C31.1299 19.5828 32.6073 20.2748 33.804 21.335Z" fill="#475569"/>
<path d="M28.5 42C21.044 42 15 35.956 15 28.5C15 21.044 21.044 15 28.5 15C35.956 15 42 21.044 42 28.5C42 35.956 35.956 42 28.5 42ZM28.5 41C35.404 41 41 35.404 41 28.5C41 21.596 35.404 16 28.5 16C21.596 16 16 21.596 16 28.5C16 35.404 21.596 41 28.5 41ZM28.5 31.6C27.6778 31.6 26.8893 31.2734 26.308 30.692C25.7266 30.1107 25.4 29.3222 25.4 28.5C25.4 27.6778 25.7266 26.8893 26.308 26.308C26.8893 25.7266 27.6778 25.4 28.5 25.4C29.3222 25.4 30.1107 25.7266 30.692 26.308C31.2734 26.8893 31.6 27.6778 31.6 28.5C31.6 29.3222 31.2734 30.1107 30.692 30.692C30.1107 31.2734 29.3222 31.6 28.5 31.6ZM28.5 30.6C29.057 30.6 29.5911 30.3788 29.9849 29.9849C30.3788 29.5911 30.6 29.057 30.6 28.5C30.6 27.943 30.3788 27.4089 29.9849 27.0151C29.5911 26.6212 29.057 26.4 28.5 26.4C27.943 26.4 27.4089 26.6212 27.0151 27.0151C26.6212 27.4089 26.4 27.943 26.4 28.5C26.4 29.057 26.6212 29.5911 27.0151 29.9849C27.4089 30.3788 27.943 30.6 28.5 30.6Z" fill="#E2E8F0"/>
</g>
<defs>
<linearGradient id="paint0_linear_344_9" x1="2800" y1="5600" x2="2800" y2="0" gradientUnits="userSpaceOnUse">
<stop stop-color="#334155"/>
<stop offset="1" stop-color="#94A3B8" stop-opacity="0.601"/>
</linearGradient>
<radialGradient id="paint1_radial_344_9" cx="0" cy="0" r="1" gradientUnits="userSpaceOnUse" gradientTransform="translate(2633.18 2739.93) scale(1868.29)">
<stop stop-color="#F1F5F9"/>
<stop offset="1" stop-color="#F1F5F9" stop-opacity="0"/>
</radialGradient>
<clipPath id="clip0_344_9">
<rect width="56" height="56" fill="white"/>
</clipPath>
</defs>
</svg>
