  <svg
                          class="shrink-0 fill-green-300 mr-3"
                          xmlns="http://www.w3.org/2000/svg"
                          width="16"
                          height="16"
                        >
                          <path
                            d="M14 0a2 2 0 0 1 2 2v12a2 2 0 0 1-2 2H2a2 2 0 0 1-2-2V2a2 2 0 0 1 2-2h12Zm0 14V2H2v12h12Zm-3-7H5a1 1 0 1 1 0-2h6a1 1 0 0 1 0 2Zm0 4H5a1 1 0 0 1 0-2h6a1 1 0 0 1 0 2Z"
                          />
                        </svg>