<svg width="16" height="16" viewBox="0 0 16 16" fill="none" xmlns="http://www.w3.org/2000/svg">
<g clip-path="url(#clip0_378_103)">
<path d="M11.7822 0.104754C11.3335 -0.136181 10.7847 0.0526024 10.5565 0.526388L3.77694 14.6015C3.54874 15.0753 3.72759 15.6544 4.17638 15.8953C4.30874 15.9663 4.44979 16 4.58877 16C4.92094 16 5.24114 15.8077 5.40207 15.4737L12.1816 1.39852C12.4098 0.924802 12.231 0.345624 11.7822 0.104754Z" fill="#86EFAC"/>
<path d="M6.91436 4.74011C6.91436 2.7279 5.36343 1.09082 3.45712 1.09082C1.55093 1.09082 0 2.7279 0 4.74011C0 6.75226 1.55093 8.38935 3.45718 8.38935C5.3635 8.38935 6.91436 6.75226 6.91436 4.74011ZM3.45718 6.46495C2.5562 6.46495 1.82312 5.69115 1.82312 4.74011C1.82312 3.78901 2.5562 3.01522 3.45718 3.01522C4.35823 3.01522 5.0913 3.78895 5.0913 4.74011C5.09124 5.69115 4.35823 6.46495 3.45718 6.46495Z" fill="#86EFAC"/>
<path d="M12.5427 7.61133C10.6364 7.61133 9.08545 9.24841 9.08545 11.2606C9.08545 13.2727 10.6363 14.9098 12.5427 14.9098C14.4489 14.9098 15.9999 13.2728 15.9999 11.2606C15.9999 9.24835 14.449 7.61133 12.5427 7.61133ZM12.5427 12.9853C11.6416 12.9853 10.9086 12.2115 10.9086 11.2605C10.9086 10.3095 11.6416 9.53566 12.5427 9.53566C13.4437 9.53566 14.1768 10.3095 14.1768 11.2605C14.1768 12.2115 13.4437 12.9853 12.5427 12.9853Z" fill="#86EFAC"/>
</g>
<defs>
<clipPath id="clip0_378_103">
<rect width="16" height="16" fill="white"/>
</clipPath>
</defs>
</svg>
